<svg width="15" height="18" viewBox="0 0 15 18" fill="none" xmlns="http://www.w3.org/2000/svg">
<path d="M6.25 9C6.44891 9 6.63968 9.07902 6.78033 9.21967C6.92098 9.36032 7 9.55109 7 9.75C7 9.94891 6.92098 10.1397 6.78033 10.2803C6.63968 10.421 6.44891 10.5 6.25 10.5H4C3.80109 10.5 3.61032 10.421 3.46967 10.2803C3.32902 10.1397 3.25 9.94891 3.25 9.75C3.25 9.55109 3.32902 9.36032 3.46967 9.21967C3.61032 9.07902 3.80109 9 4 9H6.25ZM10.75 6.75C10.75 6.55109 10.671 6.36032 10.5303 6.21967C10.3897 6.07902 10.1989 6 10 6H4C3.80109 6 3.61032 6.07902 3.46967 6.21967C3.32902 6.36032 3.25 6.55109 3.25 6.75C3.25 6.94891 3.32902 7.13968 3.46967 7.28033C3.61032 7.42098 3.80109 7.5 4 7.5H10C10.1989 7.5 10.3897 7.42098 10.5303 7.28033C10.671 7.13968 10.75 6.94891 10.75 6.75ZM4 4.5H10C10.1989 4.5 10.3897 4.42098 10.5303 4.28033C10.671 4.13968 10.75 3.94891 10.75 3.75C10.75 3.55109 10.671 3.36032 10.5303 3.21967C10.3897 3.07902 10.1989 3 10 3H4C3.80109 3 3.61032 3.07902 3.46967 3.21967C3.32902 3.36032 3.25 3.55109 3.25 3.75C3.25 3.94891 3.32902 4.13968 3.46967 4.28033C3.61032 4.42098 3.80109 4.5 4 4.5ZM13 14.583V17.4578C13.0001 17.5647 12.9684 17.6693 12.909 17.7583C12.8495 17.8473 12.7651 17.9166 12.6662 17.9576C12.5674 17.9985 12.4586 18.0092 12.3537 17.9884C12.2488 17.9675 12.1524 17.9159 12.0767 17.8403L11.5 17.2642L10.9233 17.8403C10.8476 17.9159 10.7512 17.9675 10.6463 17.9884C10.5414 18.0092 10.4326 17.9985 10.3338 17.9576C10.2349 17.9166 10.1505 17.8473 10.091 17.7583C10.0316 17.6693 9.99995 17.5647 10 17.4578V14.583C9.42801 14.2544 8.98075 13.7458 8.72787 13.1365C8.47498 12.5272 8.43068 11.8514 8.60184 11.2143C8.77301 10.5773 9.15005 10.0147 9.67423 9.61416C10.1984 9.21365 10.8403 8.99772 11.5 9C11.7535 9.00317 12.0056 9.03896 12.25 9.1065V3.75C12.25 3.15326 12.0129 2.58097 11.591 2.15901C11.169 1.73705 10.5967 1.5 10 1.5H4C3.40326 1.5 2.83097 1.73705 2.40901 2.15901C1.98705 2.58097 1.75 3.15326 1.75 3.75V12.75C1.75 13.3467 1.98705 13.919 2.40901 14.341C2.83097 14.7629 3.40326 15 4 15H7.75C7.94891 15 8.13968 15.079 8.28033 15.2197C8.42098 15.3603 8.5 15.5511 8.5 15.75C8.5 15.9489 8.42098 16.1397 8.28033 16.2803C8.13968 16.421 7.94891 16.5 7.75 16.5H4C3.0058 16.4988 2.05267 16.1033 1.34966 15.4003C0.646661 14.6973 0.251191 13.7442 0.25 12.75V3.75C0.251191 2.7558 0.646661 1.80267 1.34966 1.09966C2.05267 0.396661 3.0058 0.00119089 4 0L10 0C10.9942 0.00119089 11.9473 0.396661 12.6503 1.09966C13.3533 1.80267 13.7488 2.7558 13.75 3.75V10.0365C14.0438 10.3664 14.2601 10.7579 14.383 11.1822C14.506 11.6065 14.5324 12.0529 14.4605 12.4888C14.3886 12.9247 14.2202 13.339 13.9675 13.7013C13.7147 14.0637 13.3842 14.3649 13 14.583V14.583ZM13 12C13 11.7033 12.912 11.4133 12.7472 11.1666C12.5824 10.92 12.3481 10.7277 12.074 10.6142C11.7999 10.5006 11.4983 10.4709 11.2074 10.5288C10.9164 10.5867 10.6491 10.7296 10.4393 10.9393C10.2296 11.1491 10.0867 11.4164 10.0288 11.7074C9.97094 11.9983 10.0006 12.2999 10.1142 12.574C10.2277 12.8481 10.42 13.0824 10.6666 13.2472C10.9133 13.412 11.2033 13.5 11.5 13.5C11.8978 13.5 12.2794 13.342 12.5607 13.0607C12.842 12.7794 13 12.3978 13 12V12Z" fill="#A3ABB5"/>
</svg>
