<svg width="28" height="28" viewBox="0 0 28 28" fill="none" xmlns="http://www.w3.org/2000/svg">
<path d="M24.4341 5.81498C25.9478 5.81498 27.175 4.58787 27.175 3.07416C27.175 1.56045 25.9478 0.333344 24.4341 0.333344C22.9203 0.333344 21.6932 1.56045 21.6932 3.07416C21.6932 4.58787 22.9203 5.81498 24.4341 5.81498Z" fill="#E93256"/>
<path fill-rule="evenodd" clip-rule="evenodd" d="M27.8569 12.368C27.3305 11.0985 25.3731 10.5747 22.6225 10.7265C20.609 7.74353 17.0829 5.81338 13.1962 5.81338C7.06252 5.7546 2.04313 10.6967 2.04313 16.5634C2.03923 17.4894 2.15722 18.4118 2.39407 19.3069C0.52529 21.0668 -0.366111 22.7382 0.140127 23.9568C0.696375 25.286 2.7959 25.7992 5.74384 25.5887C6.09479 25.5623 6.49399 25.493 6.86862 25.4439C8.68125 26.6476 10.8685 27.3021 13.1953 27.3021C18.4823 27.3021 22.4409 24.1542 23.8623 19.814C21.9207 20.7615 19.572 21.3274 19.572 21.3274C20.1861 20.9958 21.3126 20.2553 22.0593 19.7482C23.2472 18.9261 24.2737 18.1593 24.2737 18.1593V18.1532C24.7177 17.8022 25.1423 17.4513 25.5135 17.1004C27.4524 15.3159 28.3772 13.6086 27.8569 12.368ZM3.9742 23.7155C4.11107 23.7155 4.25408 23.7085 4.39183 23.7024C7.91619 23.5085 9.42262 22.5706 9.42262 22.5636C5.69646 22.8926 3.80663 22.2118 3.67853 22.1626C3.34765 21.6674 3.06222 21.1432 2.82574 20.5966C1.8387 21.5336 1.36844 22.3495 1.60532 22.9259C1.83256 23.4751 2.70115 23.7155 3.9742 23.7155ZM10.8495 20.1037C11.5504 20.5727 12.3747 20.8233 13.2181 20.8238C14.3488 20.8245 15.4335 20.3761 16.2336 19.5771C17.0338 18.7782 17.4838 17.6941 17.4847 16.5634C17.4854 15.7201 17.236 14.8955 16.768 14.1939C16.3 13.4923 15.6344 12.9452 14.8555 12.6219C14.0766 12.2985 13.2193 12.2135 12.392 12.3774C11.5647 12.5413 10.8046 12.9468 10.2078 13.5427C9.61103 14.1387 9.20437 14.8982 9.03926 15.7252C8.87415 16.5522 8.95801 17.4096 9.28023 18.189C9.60246 18.9684 10.1486 19.6347 10.8495 20.1037ZM23.456 12.2004C23.8961 13.1528 24.1856 14.1677 24.3141 15.2088V15.2106C25.6854 14.3227 25.8635 13.405 25.6854 12.9681C25.474 12.475 24.5185 12.2267 23.456 12.2004Z" fill="#E93256"/>
</svg>
