<svg width="18" height="18" viewBox="0 0 18 18" fill="none" xmlns="http://www.w3.org/2000/svg">
<g clip-path="url(#clip0_2_484)">
<path d="M17.9062 5.65725C17.697 4.92247 17.2073 4.29941 16.5427 3.9225L11.0122 1.28775C10.4144 0.930622 9.7321 0.739244 9.0357 0.733312C8.33929 0.72738 7.65388 0.907109 7.04999 1.254L1.45724 3.9225C1.43624 3.933 1.41449 3.94425 1.39424 3.95625C0.965391 4.20146 0.609968 4.55696 0.364854 4.98587C0.119741 5.41478 -0.00613258 5.90146 0.000295459 6.39543C0.0067235 6.88939 0.145219 7.37264 0.40141 7.79502C0.657602 8.21741 1.02216 8.56354 1.45724 8.7975L2.99999 9.5325V13.2075C3.00044 14.0081 3.25677 14.7877 3.73156 15.4324C4.20636 16.077 4.87477 16.5531 5.63924 16.791C6.73116 17.1069 7.86337 17.2615 8.99999 17.25C10.1364 17.2627 11.2686 17.1094 12.3607 16.7948C13.1252 16.5568 13.7936 16.0808 14.2684 15.4361C14.7432 14.7914 14.9995 14.0119 15 13.2113V9.531L16.5 8.814V15C16.5 15.1989 16.579 15.3897 16.7197 15.5303C16.8603 15.671 17.0511 15.75 17.25 15.75C17.4489 15.75 17.6397 15.671 17.7803 15.5303C17.921 15.3897 18 15.1989 18 15V6C17.9976 5.87976 17.9653 5.762 17.9062 5.65725V5.65725ZM13.5 13.2113C13.5002 13.6902 13.3475 14.1567 13.0643 14.5429C12.781 14.9291 12.3819 15.2148 11.925 15.3585C10.9741 15.6302 9.98882 15.7621 8.99999 15.75C8.01117 15.7621 7.02585 15.6302 6.07499 15.3585C5.61811 15.2148 5.219 14.9291 4.93572 14.5429C4.65245 14.1567 4.49981 13.6902 4.49999 13.2113V10.2473L6.98774 11.4323C7.60156 11.7968 8.30261 11.9883 9.01649 11.9865C9.696 11.9913 10.3641 11.8114 10.9492 11.466L13.5 10.2473V13.2113ZM15.9 7.44375L10.2435 10.1438C9.85645 10.3691 9.41541 10.485 8.96757 10.4791C8.51973 10.4731 8.08192 10.3456 7.70099 10.11L2.16674 7.4775C1.96754 7.37009 1.80069 7.21135 1.68348 7.01775C1.56628 6.82415 1.50298 6.60272 1.50015 6.37642C1.49731 6.15012 1.55506 5.92718 1.66738 5.7307C1.77971 5.53423 1.94254 5.37137 2.13899 5.259L7.76024 2.574C8.14745 2.34911 8.58842 2.23347 9.03616 2.23941C9.4839 2.24536 9.92164 2.37266 10.3027 2.60775L15.8332 5.2425C16.033 5.35345 16.1999 5.51525 16.317 5.7115C16.4341 5.90776 16.4973 6.13149 16.5 6.36C16.5003 6.57675 16.4454 6.79002 16.3405 6.97964C16.2355 7.16927 16.0839 7.329 15.9 7.44375V7.44375Z" fill="#A3ABB5"/>
</g>
<defs>
<clipPath id="clip0_2_484">
<rect width="18" height="18" fill="white"/>
</clipPath>
</defs>
</svg>
