<svg width="24" height="33" viewBox="0 0 24 33" fill="none" xmlns="http://www.w3.org/2000/svg">
<path d="M4 32.5H6.84C7.43672 32.4943 8.01466 32.2906 8.48307 31.9209C8.95149 31.5512 9.28386 31.0364 9.428 30.4573C9.58237 29.8936 9.9177 29.3961 10.3824 29.0415C10.8471 28.687 11.4155 28.4949 12 28.4949C12.5845 28.4949 13.1529 28.687 13.6176 29.0415C14.0823 29.3961 14.4176 29.8936 14.572 30.4573C14.7161 31.0364 15.0485 31.5512 15.5169 31.9209C15.9853 32.2906 16.5633 32.4943 17.16 32.5H20C21.0609 32.5 22.0783 32.0786 22.8284 31.3284C23.5786 30.5783 24 29.5609 24 28.5V23.1667H18.6667C18.313 23.1667 17.9739 23.0262 17.7239 22.7761C17.4738 22.5261 17.3333 22.187 17.3333 21.8333C17.3333 21.4797 17.4738 21.1406 17.7239 20.8905C17.9739 20.6405 18.313 20.5 18.6667 20.5H24V7.16667C23.9979 5.39921 23.2948 3.70474 22.045 2.45496C20.7953 1.20518 19.1008 0.502117 17.3333 0.5L17.16 0.5C16.5633 0.505669 15.9853 0.709351 15.5169 1.07907C15.0485 1.44878 14.7161 1.96359 14.572 2.54267C14.4176 3.10645 14.0823 3.6039 13.6176 3.95847C13.1529 4.31305 12.5845 4.50511 12 4.50511C11.4155 4.50511 10.8471 4.31305 10.3824 3.95847C9.9177 3.6039 9.58237 3.10645 9.428 2.54267C9.28386 1.96359 8.95149 1.44878 8.48307 1.07907C8.01466 0.709351 7.43672 0.505669 6.84 0.5L6.66667 0.5C4.89921 0.502117 3.20474 1.20518 1.95496 2.45496C0.705176 3.70474 0.00211714 5.39921 0 7.16667V20.5H5.33333C5.68696 20.5 6.02609 20.6405 6.27614 20.8905C6.52619 21.1406 6.66667 21.4797 6.66667 21.8333C6.66667 22.187 6.52619 22.5261 6.27614 22.7761C6.02609 23.0262 5.68696 23.1667 5.33333 23.1667H0V28.5C0 29.5609 0.421427 30.5783 1.17157 31.3284C1.92172 32.0786 2.93913 32.5 4 32.5ZM10.6667 20.5H13.3333C13.687 20.5 14.0261 20.6405 14.2761 20.8905C14.5262 21.1406 14.6667 21.4797 14.6667 21.8333C14.6667 22.187 14.5262 22.5261 14.2761 22.7761C14.0261 23.0262 13.687 23.1667 13.3333 23.1667H10.6667C10.313 23.1667 9.97391 23.0262 9.72386 22.7761C9.47381 22.5261 9.33333 22.187 9.33333 21.8333C9.33333 21.4797 9.47381 21.1406 9.72386 20.8905C9.97391 20.6405 10.313 20.5 10.6667 20.5Z" fill="#7FBA7A"/>
</svg>
